HIERARCHY
ROOT reference
{
  OFFSET 0 0 0
  CHANNELS 6 Xposition Yposition Zposition Zrotation Xrotation Yrotation
  JOINT Hips
  {
    OFFSET 52.838 88.992 -41.681
    CHANNELS 6 Xposition Yposition Zposition Zrotation Xrotation Yrotation
    JOINT Spine
    {
      OFFSET 0 8.25043 0
      CHANNELS 6 Xposition Yposition Zposition Zrotation Xrotation Yrotation
      JOINT Spine1
      {
        OFFSET 0 26.9735 0
        CHANNELS 6 Xposition Yposition Zposition Zrotation Xrotation Yrotation
        JOINT Neck
        {
          OFFSET 0 26.8627 2.44206
          CHANNELS 6 Xposition Yposition Zposition Zrotation Xrotation Yrotation
          JOINT Head
          {
            OFFSET 0 14.0861 -2.0123
            CHANNELS 6 Xposition Yposition Zposition Zrotation Xrotation Yrotation
            End Site
            {
              OFFSET 0 25.1537 0
            }
          }
        }
        JOINT LeftShoulder
        {
          OFFSET 4.03461 23.8974 -0.31355
          CHANNELS 6 Xposition Yposition Zposition Zrotation Xrotation Yrotation
          JOINT LeftArm
          {
            OFFSET 14.6104 0 0
            CHANNELS 6 Xposition Yposition Zposition Zrotation Xrotation Yrotation
            JOINT LeftForeArm
            {
              OFFSET 28.8903 0 0
              CHANNELS 6 Xposition Yposition Zposition Zrotation Xrotation Yrotation
              JOINT LeftHand
              {
                OFFSET 28.8168 0 0
                CHANNELS 6 Xposition Yposition Zposition Zrotation Xrotation Yrotation
                End Site
                {
                  OFFSET 15.0922 0 0
                }
              }
            }
          }
        }
        JOINT RightShoulder
        {
          OFFSET -4.01401 23.8974 -0.31355
          CHANNELS 6 Xposition Yposition Zposition Zrotation Xrotation Yrotation
          JOINT RightArm
          {
            OFFSET -14.6104 0 0
            CHANNELS 6 Xposition Yposition Zposition Zrotation Xrotation Yrotation
            JOINT RightForeArm
            {
              OFFSET -28.8903 0 0
              CHANNELS 6 Xposition Yposition Zposition Zrotation Xrotation Yrotation
              JOINT RightHand
              {
                OFFSET -28.8168 0 0
                CHANNELS 6 Xposition Yposition Zposition Zrotation Xrotation Yrotation
                End Site
                {
                  OFFSET -15.0922 0 0
                }
              }
            }
          }
        }
      }
    }
    JOINT LeftUpLeg
    {
      OFFSET 10.0615 0 0
      CHANNELS 6 Xposition Yposition Zposition Zrotation Xrotation Yrotation
      JOINT LeftLeg
      {
        OFFSET 0 -36.0896 0
        CHANNELS 6 Xposition Yposition Zposition Zrotation Xrotation Yrotation
        JOINT LeftFoot
        {
          OFFSET 0 -47.1136 0
          CHANNELS 6 Xposition Yposition Zposition Zrotation Xrotation Yrotation
          JOINT LeftToeBase
          {
            OFFSET 0 -6.53997 15.0922
            CHANNELS 6 Xposition Yposition Zposition Zrotation Xrotation Yrotation
            End Site
            {
              OFFSET 0 0 4.0246
            }
          }
        }
      }
    }
    JOINT RightUpLeg
    {
      OFFSET -10.0615 0 0
      CHANNELS 6 Xposition Yposition Zposition Zrotation Xrotation Yrotation
      JOINT RightLeg
      {
        OFFSET 0 -36.0896 0
        CHANNELS 6 Xposition Yposition Zposition Zrotation Xrotation Yrotation
        JOINT RightFoot
        {
          OFFSET 0 -47.1136 0
          CHANNELS 6 Xposition Yposition Zposition Zrotation Xrotation Yrotation
          JOINT RightToeBase
          {
            OFFSET 0 -6.53997 15.0922
            CHANNELS 6 Xposition Yposition Zposition Zrotation Xrotation Yrotation
            End Site
            {
              OFFSET 0 0 4.0246
            }
          }
        }
      }
    }
  }
}
MOTION
Frames:	4
Frame Time:	0.004
0 0 0 0 0 -0 -17.8388 99.218 36.3361 -9.03171 -28.0348 35.677 0 8.25043 0 9.48898 13.0647 -7.46098 0 26.9735 0 1.61545 7.48839 -6.4777 0 26.8627 2.44206 2.75002 29.0678 13.9447 0 14.0861 -2.0123 -16.0372 20.5212 15.5765 4.03461 23.8974 -0.31355 7.05942 -4.83948 -8.61375 14.6104 0 7.10543e-015 -31.4223 17.1913 -60.39 28.8903 2.84217e-014 0 9.84499 -34.1796 -37.5558 28.8168 1.42109e-014 0 9.45204 -32.3226 -13.6778 -4.01401 23.8974 -0.31355 -0.175237 24.7838 1.43275 -14.6104 -2.84217e-014 7.10543e-015 56.9712 34.502 2.31061 -28.8903 0 0 -1.29638 -1.57048 4.79426 -28.8168 -1.42109e-014 -1.42109e-014 7.50608 -2.48422 -14.6839 10.0615 -1.42109e-014 7.10543e-015 16.841 12.6818 -2.63739 0 -36.0896 -3.55271e-015 -1.08328 21.8587 -37.377 0 -47.1136 3.55271e-015 6.59666 6.55909 25.1929 0 -6.53997 15.0922 3.53113e-031 6.36111e-015 -3.18055e-015 -10.0615 0 0 -15.7875 -52.5226 -17.2198 0 -36.0896 0 -178.222 53.0174 -161.531 0 -47.1136 -1.42109e-014 -0.701558 -34.4991 7.10185 0 -6.53997 15.0922 1.59028e-015 -9.54166e-015 3.18055e-015 
0 0 0 0 0 -0 -17.7836 99.9512 36.6474 -9.12882 -28.1833 36.1731 0 8.25043 -7.10543e-015 9.65984 13.1342 -7.72887 -7.10543e-015 26.9735 3.55271e-015 1.80176 7.47902 -6.73198 -7.10543e-015 26.8627 2.44206 2.4952 29.8041 14.1608 3.55271e-015 14.0861 -2.0123 -16.2905 21.162 15.9002 4.03461 23.8974 -0.31355 7.41786 -4.95293 -8.4528 14.6104 -2.84217e-014 0 -31.3793 16.9437 -60.7486 28.8903 0 1.42109e-014 10.0576 -34.5243 -38.386 28.8168 0 -1.42109e-014 9.57565 -32.5338 -13.3539 -4.01401 23.8974 -0.31355 -0.274428 24.9153 1.46044 -14.6104 2.84217e-014 7.10543e-015 57.1559 34.6529 1.89634 -28.8903 -1.42109e-014 -1.42109e-014 -1.48245 -1.11382 4.5749 -28.8168 0 0 7.4784 -2.02545 -14.7774 10.0615 2.84217e-014 0 17.5878 12.9018 -2.59128 0 -36.0896 -3.55271e-015 -1.40201 21.0598 -36.2742 0 -47.1136 -3.55271e-015 5.57649 8.40569 23.6537 -7.10543e-015 -6.53997 15.0922 2.38542e-015 3.18055e-015 -3.18055e-015 -10.0615 0 0 -15.9782 -53.0068 -17.5165 -1.42109e-014 -36.0896 0 -178.851 52.725 -161.144 0 -47.1136 2.13163e-014 -0.199352 -34.6136 7.55039 0 -6.53997 15.0922 1.59028e-015 3.18055e-015 -0 
0 0 0 0 0 -0 -17.7172 100.681 36.9667 -9.23443 -28.3448 36.5825 0 8.25043 -7.10543e-015 9.8369 13.2059 -7.95907 7.10543e-015 26.9735 -3.55271e-015 1.96102 7.49988 -6.94616 0 26.8627 2.44206 2.15847 30.6208 14.3937 3.55271e-015 14.0861 -2.0123 -16.4263 21.5232 16.1811 4.03461 23.8974 -0.31355 7.84114 -5.19049 -8.27381 14.6104 0 0 -31.4925 16.813 -61.0036 28.8903 2.84217e-014 0 10.0651 -34.9217 -39.5493 28.8168 0 1.42109e-014 10.4002 -32.8521 -12.4362 -4.01401 23.8974 -0.31355 -0.283694 25.204 1.46445 -14.6104 0 -7.10543e-015 57.1796 34.8406 1.59251 -28.8903 0 -1.42109e-014 -1.71145 -0.742022 4.50848 -28.8168 0 -1.42109e-014 7.59158 -1.67835 -15.0426 10.0615 -1.42109e-014 -7.10543e-015 18.3314 13.1598 -2.0188 7.10543e-015 -36.0896 3.55271e-015 -1.5537 20.1752 -35.4528 -3.55271e-015 -47.1136 0 3.6667 10.1111 22.2482 0 -6.53997 15.0922 1.59028e-015 -3.18055e-015 -9.54166e-015 -10.0615 0 0 -16.0226 -53.4763 -17.8706 -1.42109e-014 -36.0896 0 -179.234 52.4384 -161.146 0 -47.1136 0 0.542737 -34.7482 8.15593 1.42109e-014 -6.53997 15.0922 -1.59028e-015 1.59028e-015 1.27222e-014 
0 0 0 0 0 -0 -17.652 101.4 37.2623 -9.31592 -28.4404 37.0387 0 8.25043 0 9.99459 13.2421 -8.19516 7.10543e-015 26.9735 0 2.08869 7.5421 -7.1698 0 26.8627 2.44206 1.83755 31.3678 14.6069 -3.55271e-015 14.0861 -2.0123 -16.5531 21.8663 16.4345 4.03461 23.8974 -0.31355 8.24075 -5.28292 -8.03641 14.6104 -2.84217e-014 7.10543e-015 -31.48 16.5532 -61.4315 28.8903 0 -1.42109e-014 10.1468 -35.2593 -40.5224 28.8168 -1.42109e-014 0 10.9628 -33.0997 -11.904 -4.01401 23.8974 -0.31355 -0.284536 25.431 1.42127 -14.6104 0 -1.42109e-014 57.1669 34.9894 1.36163 -28.8903 0 2.84217e-014 -1.85861 -0.342966 4.40791 -28.8168 0 1.42109e-014 7.6377 -1.30246 -15.354 10.0615 1.42109e-014 7.10543e-015 19.0026 13.2858 -1.64931 0 -36.0896 0 -1.77764 19.3984 -34.2392 7.10543e-015 -47.1136 -7.10543e-015 2.03356 11.802 20.7592 0 -6.53997 15.0922 3.18055e-015 0 -0 -10.0615 1.42109e-014 0 -16.1909 -53.9117 -18.1351 0 -36.0896 -1.42109e-014 -179.767 52.2293 -160.736 0 -47.1136 1.42109e-014 0.998089 -34.954 8.5883 1.42109e-014 -6.53997 15.0922 -1.59028e-015 1.59028e-015 9.54166e-015 
